<svg id="Layer_1" data-name="Layer 1" xmlns="http://www.w3.org/2000/svg" viewBox="0 0 153.36 29.29"><defs><style>.cls-1{fill:#d0e2ed;}</style></defs><title>Artboard 2</title><path class="cls-1" d="M2.72,24.8v4.29H1.12V18.52H2.93a7.84,7.84,0,0,1,2,.19,2.63,2.63,0,0,1,1.2.7,3,3,0,0,1,.91,2.24,2.89,2.89,0,0,1-1,2.3,3.82,3.82,0,0,1-2.62.85Zm0-1.48h.59c1.47,0,2.2-.56,2.2-1.69S4.76,20,3.25,20H2.72Z"/><path class="cls-1" d="M14.77,22.66h4.56V18.52h1.59V29.09H19.33V24.16H14.77v4.93H13.18V18.52h1.59Z"/><path class="cls-1" d="M27.42,23.76a5.15,5.15,0,0,1,1.63-3.83A5.39,5.39,0,0,1,33,18.32a5.53,5.53,0,0,1,5.49,5.5,5.19,5.19,0,0,1-1.63,3.87,5.58,5.58,0,0,1-7.62.17A5.16,5.16,0,0,1,27.42,23.76Zm1.6,0a3.83,3.83,0,0,0,1.18,2.88,3.9,3.9,0,0,0,5.51,0,4.11,4.11,0,0,0,0-5.67A3.73,3.73,0,0,0,33,19.82a3.91,3.91,0,0,0-3.93,4Z"/><path class="cls-1" d="M47.49,20v9.07H45.9V20H43.47v-1.5h6.44V20Z"/><path class="cls-1" d="M55,23.76a5.12,5.12,0,0,1,1.64-3.83,5.37,5.37,0,0,1,3.91-1.61,5.55,5.55,0,0,1,5.5,5.5,5.23,5.23,0,0,1-1.63,3.87,5.59,5.59,0,0,1-7.63.17A5.19,5.19,0,0,1,55,23.76Zm1.61,0a3.91,3.91,0,0,0,6.68,2.86,4.1,4.1,0,0,0,0-5.67,3.77,3.77,0,0,0-2.78-1.15A3.8,3.8,0,0,0,57.7,21,3.85,3.85,0,0,0,56.57,23.78Z"/><path class="cls-1" d="M77.93,23.59H82.3v.35A7.41,7.41,0,0,1,82,26a4.46,4.46,0,0,1-.93,1.59,4.77,4.77,0,0,1-3.74,1.66,5.17,5.17,0,0,1-3.8-1.6A5.34,5.34,0,0,1,72,23.83a5.5,5.5,0,0,1,5.52-5.51,5.49,5.49,0,0,1,2.32.5,6.71,6.71,0,0,1,2,1.65l-1.13,1.08a3.87,3.87,0,0,0-3.17-1.73A3.77,3.77,0,0,0,74.71,21a3.87,3.87,0,0,0-1.14,2.85,3.75,3.75,0,0,0,1.27,2.91A3.8,3.8,0,0,0,77.4,27.8a3.2,3.2,0,0,0,2.12-.8,2.81,2.81,0,0,0,1-1.91H77.93Z"/><path class="cls-1" d="M92.37,24.59l3.27,4.5h-2l-3-4.33h-.29v4.33H88.79V18.52h1.86a4.7,4.7,0,0,1,3,.79,2.91,2.91,0,0,1,1,2.31,3,3,0,0,1-.65,1.93A2.86,2.86,0,0,1,92.37,24.59Zm-2-1.21h.51c1.51,0,2.26-.58,2.26-1.74S92.42,20,91,20h-.57Z"/><path class="cls-1" d="M107.92,26.52h-4.53l-1.17,2.57H100.5l5.23-11.23,5,11.23H109Zm-.65-1.5-1.57-3.59L104.06,25Z"/><path class="cls-1" d="M118.17,24.8v4.29h-1.59V18.52h1.8a7.79,7.79,0,0,1,2,.19,2.53,2.53,0,0,1,1.2.7,3,3,0,0,1,.91,2.24,2.89,2.89,0,0,1-1,2.3,3.82,3.82,0,0,1-2.62.85Zm0-1.48h.6c1.46,0,2.19-.56,2.19-1.69S120.21,20,118.7,20h-.53Z"/><path class="cls-1" d="M130.23,22.66h4.55V18.52h1.6V29.09h-1.6V24.16h-4.55v4.93h-1.6V18.52h1.6Z"/><path class="cls-1" d="M145.53,24.52l-3.45-6h1.84l2.41,4.23,2.43-4.23h1.83l-3.46,6v4.57h-1.6Z"/><path class="cls-1" d="M10.87,13.11H5.17l-.92,2.67H0L5.84.43H10.2L16,15.78H11.79Zm-1.06-3L8,5,6.23,10.08Z"/><path class="cls-1" d="M17.39,15.78V.43h4l7.37,9.38V.43h4V15.78h-4L21.38,6.39v9.39Z"/><path class="cls-1" d="M42.88,7.19H50.8a21.4,21.4,0,0,1-.11,2.22,7.69,7.69,0,0,1-.4,1.85,7.54,7.54,0,0,1-1.16,2.13,7,7,0,0,1-1.72,1.54,8.13,8.13,0,0,1-2.17,1,9.24,9.24,0,0,1-2.49.33,8.76,8.76,0,0,1-3.26-.59A7.51,7.51,0,0,1,37,14a7.77,7.77,0,0,1-1.65-2.57,9,9,0,0,1-.59-3.31,9.21,9.21,0,0,1,.58-3.29A7.19,7.19,0,0,1,39.52.59,9.18,9.18,0,0,1,42.88,0a8.34,8.34,0,0,1,4.21,1A7.13,7.13,0,0,1,50,4.25L46.17,5.82A3.87,3.87,0,0,0,44.8,4a3.4,3.4,0,0,0-1.92-.55,3.78,3.78,0,0,0-1.63.34,3.44,3.44,0,0,0-1.25,1,4.71,4.71,0,0,0-.82,1.5,6,6,0,0,0-.29,1.95A6.21,6.21,0,0,0,39.14,10a4,4,0,0,0,.76,1.44,3.35,3.35,0,0,0,1.27.95,4.3,4.3,0,0,0,1.75.33,4.8,4.8,0,0,0,1.14-.13,3.19,3.19,0,0,0,1-.42,2.44,2.44,0,0,0,.73-.77,2.89,2.89,0,0,0,.38-1.14H42.88Z"/><path class="cls-1" d="M61.24,3.81H56.5V6.37H61V9.75H56.5V12.4h4.74v3.38H52.51V.43h8.73Z"/><path class="cls-1" d="M67.29.43v12h4.78v3.38H63.3V.43Z"/><path class="cls-1" d="M84.57,13.11h-5.7L78,15.78H73.7L79.54.43H83.9l5.84,15.35H85.49Zm-1.06-3L81.72,5l-1.79,5.11Z"/><path class="cls-1" d="M102.61,3.81v12h-4v-12H95.34V.43h10.55V3.81Z"/><path class="cls-1" d="M106,8.1a8,8,0,0,1,2.38-5.76A8.17,8.17,0,0,1,111.07.62a9.77,9.77,0,0,1,6.85,0,8.37,8.37,0,0,1,2.7,1.72,7.84,7.84,0,0,1,1.76,2.58A8,8,0,0,1,123,8.1a8,8,0,0,1-.63,3.19,7.9,7.9,0,0,1-1.76,2.57,8,8,0,0,1-2.7,1.72,9.63,9.63,0,0,1-6.85,0,7.86,7.86,0,0,1-2.68-1.72A7.95,7.95,0,0,1,106,8.1Zm4.17,0a4.09,4.09,0,0,0,.35,1.69A4.21,4.21,0,0,0,112.84,12a4.47,4.47,0,0,0,3.32,0,4.33,4.33,0,0,0,1.38-.88,4.18,4.18,0,0,0,.95-1.35,4.26,4.26,0,0,0,0-3.38,4.25,4.25,0,0,0-.95-1.34,4.36,4.36,0,0,0-1.38-.89,4.6,4.6,0,0,0-3.32,0,4.3,4.3,0,0,0-2.31,2.23A4.12,4.12,0,0,0,110.18,8.1Z"/><path class="cls-1" d="M124.72.43h5.9a7,7,0,0,1,2.95.63A8.11,8.11,0,0,1,136,2.74a8,8,0,0,1,1.62,2.44,7.47,7.47,0,0,1,.59,2.92,7.58,7.58,0,0,1-.58,2.9A8,8,0,0,1,136,13.46a8.14,8.14,0,0,1-2.4,1.69,7.07,7.07,0,0,1-3,.63h-5.9Zm4,12h.92a4.88,4.88,0,0,0,1.85-.33,3.83,3.83,0,0,0,1.37-.89,3.76,3.76,0,0,0,.86-1.36A5,5,0,0,0,134,8.1a4.8,4.8,0,0,0-.3-1.71A3.92,3.92,0,0,0,132.83,5a4,4,0,0,0-1.37-.9,5.05,5.05,0,0,0-1.83-.32h-.92Z"/><path class="cls-1" d="M139.91.43h5.9a6.93,6.93,0,0,1,2.94.63,8,8,0,0,1,2.41,1.68,7.79,7.79,0,0,1,1.61,2.44,7.29,7.29,0,0,1,.59,2.92,7.4,7.4,0,0,1-.58,2.9,7.8,7.8,0,0,1-1.6,2.46,8.06,8.06,0,0,1-2.41,1.69,7,7,0,0,1-3,.63h-5.9Zm4,12h.91a4.94,4.94,0,0,0,1.86-.33,3.83,3.83,0,0,0,1.37-.89,3.9,3.9,0,0,0,.86-1.36,5,5,0,0,0,.29-1.72,4.8,4.8,0,0,0-.3-1.71A4.07,4.07,0,0,0,148,5a4,4,0,0,0-1.37-.9,5.11,5.11,0,0,0-1.84-.32h-.91Z"/></svg>